<?xml version="1.0" encoding="UTF-8"?><svg id="Layer_1" xmlns="http://www.w3.org/2000/svg" viewBox="0 0 800 800"><defs><style>.cls-1{fill:#00f796;}</style></defs><rect x="0" width="800" height="800" rx="57.33" ry="57.33"/><g><path class="cls-1" d="M216.33,305.43c-15.18,0-30.64,6.39-40.49,16.52l5.59,11.19-2.36,1.89c-10.45-18.02-29.62-29.6-50.12-29.6-31.97,0-57.81,27.97-57.81,60.74v70.59c0,2.66,1.86,4.53,4.53,4.53h23.18c2.4,0,4.26-1.87,4.26-4.26v-71.39c0-16.25,9.86-29.57,26.64-29.57,15.72,0,26.9,11.72,26.9,29.04v58.61c0,2.66,1.86,4.53,4.26,4.53h22.11c2.66,0,4.26-2.13,4.26-4.53v-58.61c0-17.32,11.72-29.04,27.44-29.04,16.78,0,26.11,13.32,26.11,29.57v71.39c0,2.13,1.86,4.26,4.53,4.26h22.91c2.93,0,4.53-2.13,4.53-4.53v-70.59c0-32.77-24.77-60.74-56.47-60.74"/><path class="cls-1" d="M353.56,414.12c-22.91,0-38.89-16.25-38.89-39.16s15.98-39.69,38.89-39.69,39.69,16.52,39.69,39.69-16.52,39.16-39.69,39.16m70.06-106.02h-21.04c-2.4,0-4.53,1.6-4.53,4.26v2.93l7.46,11.72-2.02,2.02c-12.3-13.97-29.89-23.59-49.93-23.59-37.83,0-68.99,30.9-68.99,69.53s31.17,68.99,68.99,68.99c20.2,0,37.9-9.55,50.22-23.53l1.73,1.42-7.46,12.25v2.66c0,2.66,2.13,4.53,4.53,4.53h21.04c2.66,0,4.53-1.86,4.53-4.53v-124.4c0-2.66-1.86-4.26-4.53-4.26"/><path class="cls-1" d="M654.26,414.12c-22.91,0-38.89-16.25-38.89-39.16s15.98-39.69,38.89-39.69,39.69,16.52,39.69,39.69-16.52,39.16-39.69,39.16m70.06-106.02h-21.04c-2.4,0-4.53,1.6-4.53,4.26v2.93l7.46,11.72-2.02,2.02c-12.3-13.97-29.89-23.59-49.93-23.59-37.83,0-68.99,30.9-68.99,69.53s31.17,68.99,68.99,68.99c20.2,0,37.9-9.55,50.22-23.53l1.73,1.42-7.46,12.25v2.66c0,2.66,2.13,4.53,4.53,4.53h21.04c2.66,0,4.53-1.86,4.53-4.53v-124.4c0-2.66-1.86-4.26-4.53-4.26"/><path class="cls-1" d="M567.76,308.1h-21.58c-3.46,0-5.33,1.86-5.33,3.73v65c0,20.25-13.32,34.36-33.83,34.36-18.91,0-31.17-14.12-31.17-34.36v-65c0-1.86-2.93-3.73-4.8-3.73h-23.18c-1.86,0-3.73,1.86-3.73,3.73v64.73c0,34.63,27.17,64.73,62.87,64.73,16.64,0,32.1-6.23,43.82-16.53l1.2,1.08-9.59,13.05v5.06c0,13.32-19.98,20.78-31.7,20.78h-7.46c-2.66,0-4.8,1.86-4.8,4.26v21.31c0,2.13,2.13,4.26,4.8,4.26h7.46c35.7,0,61.8-20.78,61.8-59.94v-122.81c0-1.86-1.86-3.73-4.8-3.73"/></g></svg>